<svg width="90" height="38" viewBox="0 0 90 38" fill="none" xmlns="http://www.w3.org/2000/svg">
<path d="M12.0449 5.33188H5.07051L5.06731 0.779785H0V16.2382C0.225962 21.9205 5.23397 26.3703 11.4038 26.3703H12.0353V22.2424L12.0096 21.6817H11.4038C8.04968 21.6817 5.27083 19.267 5.07853 16.2175L5.07372 10.0026H12.0433V5.33188H12.0449Z" fill="white"/>
<path d="M38.0212 15.5027C37.8177 9.79958 32.8289 5.33203 26.6623 5.33203C20.3946 5.33203 15.2969 10.0517 15.2969 15.8512C15.2969 21.6522 20.3962 26.3705 26.6623 26.3705H29.7296V21.6804H26.6623C23.1863 21.6804 20.3562 19.0654 20.3562 15.8512C20.3562 12.6326 23.1847 10.0147 26.6623 10.0147C28.3065 10.0147 29.8658 10.6005 31.0533 11.6655C32.2296 12.7201 32.9074 14.1366 32.9619 15.6362V20.2254H32.9635L32.9619 26.3823H38.0292L38.0212 15.5027Z" fill="white"/>
<path d="M64.0091 25.1362V16.3894H64.0027V15.4802C63.7992 9.77712 58.8104 5.30957 52.6437 5.30957C46.3761 5.30957 41.2783 10.0293 41.2783 15.8288C41.2783 21.6298 46.3777 26.348 52.6437 26.348H55.7158V21.6802H52.6501C49.1742 21.6802 46.344 19.0652 46.344 15.851C46.344 12.6324 49.1726 10.0144 52.6501 10.0144C54.296 10.0144 55.8553 10.6003 57.0411 11.6653C58.2174 12.7199 58.8953 14.1364 58.9498 15.636V21.6802V26.3836V26.5438H58.945V26.9502C58.7559 30.0354 55.9915 32.4516 52.6517 32.4516V33.0122V33.5729V36.0128V36.5735V37.1342C58.796 37.1342 63.7863 32.683 64.0107 26.9813V26.3465L64.0091 25.1362Z" fill="white"/>
<path d="M84.933 21.6804V26.3823H90.0003L89.9939 15.5012C89.7904 9.79811 84.8016 5.33057 78.6349 5.33057C72.3673 5.33057 67.2695 10.0503 67.2695 15.8498C67.2695 21.6508 72.3689 26.369 78.6349 26.369H81.7006V21.6789H78.6349C75.159 21.6789 72.3288 19.064 72.3288 15.8498C72.3288 12.6311 75.1574 10.0132 78.6349 10.0132C80.2791 10.0132 81.8384 10.5991 83.0259 11.664C84.2022 12.7186 84.8801 14.1366 84.933 15.6347V21.2414V21.6804Z" fill="white"/>
</svg>
