<svg id="Layer_1" data-name="Layer 1" xmlns="http://www.w3.org/2000/svg" viewBox="0 0 29.2 29.2"><defs><style>.cls-1{fill:#fff;}</style></defs><path class="cls-1" d="M14.7,11.9a2.7,2.7,0,1,0,2.7,2.7A2.7,2.7,0,0,0,14.7,11.9Z"/><path class="cls-1" d="M18,7.7H11.2a3.4,3.4,0,0,0-3.5,3.5V18a3.5,3.5,0,0,0,3.5,3.6H18A3.6,3.6,0,0,0,21.6,18V11.2A3.5,3.5,0,0,0,18,7.7ZM14.7,18.8a4.2,4.2,0,1,1,4.2-4.2A4.2,4.2,0,0,1,14.7,18.8Zm4.5-7.7a.9.9,0,0,1-1-1,1,1,0,0,1,1-1,1.1,1.1,0,0,1,1,1A1,1,0,0,1,19.2,11.1Z"/><path class="cls-1" d="M21.6,0H7.6A7.6,7.6,0,0,0,0,7.6v14a7.6,7.6,0,0,0,7.6,7.6h14a7.6,7.6,0,0,0,7.6-7.6V7.6A7.6,7.6,0,0,0,21.6,0Zm1.6,18A5.2,5.2,0,0,1,18,23.2H11.2A5.2,5.2,0,0,1,6,18V11.2A5.3,5.3,0,0,1,11.2,6H18a5.2,5.2,0,0,1,5.2,5.2Z"/></svg>