<svg width="90" height="39" viewBox="0 0 90 39" fill="none" xmlns="http://www.w3.org/2000/svg">
<path d="M12.0449 4.88315H5.07051L5.06731 0H0V16.5827C0.225962 22.6783 5.23397 27.4516 11.4038 27.4516H12.0353V23.0235L12.0096 22.4221H11.4038C8.04968 22.4221 5.27083 19.8317 5.07853 16.5604L5.07372 9.8936H12.0433V4.88315H12.0449Z" fill="white"/>
<path d="M38.0207 15.7936C37.8172 9.67576 32.8284 4.8833 26.6618 4.8833C20.3941 4.8833 15.2964 9.94625 15.2964 16.1675C15.2964 22.3904 20.3957 27.4518 26.6618 27.4518H29.7291V22.4207H26.6618C23.1858 22.4207 20.3557 19.6155 20.3557 16.1675C20.3557 12.7148 23.1842 9.90648 26.6618 9.90648C28.306 9.90648 29.8653 10.535 31.0528 11.6774C32.2291 12.8087 32.907 14.3282 32.9614 15.9368V20.8598H32.963L32.9614 27.4645H38.0287L38.0207 15.7936Z" fill="white"/>
<path d="M64.0096 26.1277V16.7448H64.0032V15.7695C63.7997 9.65159 58.8109 4.85913 52.6442 4.85913C46.3766 4.85913 41.2788 9.92208 41.2788 16.1434C41.2788 22.3663 46.3782 27.4276 52.6442 27.4276H55.7163V22.4203H52.6506C49.1746 22.4203 46.3445 19.6152 46.3445 16.1672C46.3445 12.7145 49.173 9.90617 52.6506 9.90617C54.2964 9.90617 55.8557 10.5347 57.0416 11.6771C58.2179 12.8084 58.8958 14.3279 58.9503 15.9365V22.4203V27.4658V27.6376H58.9455V28.0736C58.7564 31.3831 55.992 33.9751 52.6522 33.9751V34.5765V35.178V37.7954V38.3968V38.9983C58.7964 38.9983 63.7868 34.2233 64.0112 28.107V27.426L64.0096 26.1277Z" fill="white"/>
<path d="M84.9327 22.4205V27.4644H90.0001L89.9936 15.7919C89.7901 9.67405 84.8013 4.88159 78.6347 4.88159C72.367 4.88159 67.2693 9.94454 67.2693 16.1658C67.2693 22.3887 72.3686 27.4501 78.6347 27.4501H81.7004V22.4189H78.6347C75.1587 22.4189 72.3286 19.6138 72.3286 16.1658C72.3286 12.7131 75.1571 9.90476 78.6347 9.90476C80.2789 9.90476 81.8382 10.5333 83.0257 11.6757C84.202 12.807 84.8799 14.3281 84.9327 15.9351V21.9496V22.4205Z" fill="white"/>
</svg>
